<mxfile host="app.diagrams.net" modified="2022-09-28T15:46:38.367Z" agent="5.0 (Macintosh; Intel Mac OS X 10_15_7) AppleWebKit/537.36 (KHTML, like Gecko) Chrome/105.0.0.0 Safari/537.36" etag="4iXTU_H5xwIUVbYd_K6B" version="20.3.7" type="github">
  <diagram id="R2lEEEUBdFMjLlhIrx00" name="Page-1">
    <mxGraphModel dx="610" dy="340" grid="1" gridSize="10" guides="1" tooltips="1" connect="1" arrows="1" fold="1" page="1" pageScale="1" pageWidth="850" pageHeight="1100" math="0" shadow="0" extFonts="Permanent Marker^https://fonts.googleapis.com/css?family=Permanent+Marker">
      <root>
        <mxCell id="0" />
        <mxCell id="1" parent="0" />
        <mxCell id="C-vyLk0tnHw3VtMMgP7b-1" value="" style="edgeStyle=entityRelationEdgeStyle;endArrow=ERmany;startArrow=classic;endFill=0;startFill=1;" parent="1" source="gdrHPrjxvieABxBhzI8w-6" edge="1">
          <mxGeometry width="100" height="100" relative="1" as="geometry">
            <mxPoint x="370" y="165" as="sourcePoint" />
            <mxPoint x="450" y="195" as="targetPoint" />
          </mxGeometry>
        </mxCell>
        <mxCell id="gdrHPrjxvieABxBhzI8w-2" value="" style="edgeStyle=orthogonalEdgeStyle;rounded=0;orthogonalLoop=1;jettySize=auto;html=1;endArrow=ERmany;endFill=0;" edge="1" parent="1" source="gdrHPrjxvieABxBhzI8w-6" target="gdrHPrjxvieABxBhzI8w-1">
          <mxGeometry relative="1" as="geometry">
            <mxPoint x="245.0322580645161" y="220" as="sourcePoint" />
          </mxGeometry>
        </mxCell>
        <mxCell id="gdrHPrjxvieABxBhzI8w-5" style="edgeStyle=orthogonalEdgeStyle;rounded=0;orthogonalLoop=1;jettySize=auto;html=1;endArrow=classic;endFill=1;" edge="1" parent="1" source="gdrHPrjxvieABxBhzI8w-6" target="gdrHPrjxvieABxBhzI8w-4">
          <mxGeometry relative="1" as="geometry">
            <mxPoint x="307.5" y="220" as="sourcePoint" />
            <Array as="points">
              <mxPoint x="270" y="260" />
              <mxPoint x="270" y="260" />
            </Array>
          </mxGeometry>
        </mxCell>
        <mxCell id="gdrHPrjxvieABxBhzI8w-1" value="BREED" style="whiteSpace=wrap;html=1;startSize=30;fontStyle=1;" vertex="1" parent="1">
          <mxGeometry x="30" y="230" width="120" height="60" as="geometry" />
        </mxCell>
        <mxCell id="gdrHPrjxvieABxBhzI8w-3" value="SHELTER" style="rounded=0;whiteSpace=wrap;html=1;" vertex="1" parent="1">
          <mxGeometry x="460" y="260" width="120" height="60" as="geometry" />
        </mxCell>
        <mxCell id="gdrHPrjxvieABxBhzI8w-4" value="COLOR" style="rounded=0;whiteSpace=wrap;html=1;" vertex="1" parent="1">
          <mxGeometry x="200" y="310" width="120" height="60" as="geometry" />
        </mxCell>
        <mxCell id="gdrHPrjxvieABxBhzI8w-6" value="PET" style="rounded=0;whiteSpace=wrap;html=1;" vertex="1" parent="1">
          <mxGeometry x="210" y="140" width="120" height="60" as="geometry" />
        </mxCell>
        <mxCell id="gdrHPrjxvieABxBhzI8w-8" value="" style="edgeStyle=orthogonalEdgeStyle;rounded=0;orthogonalLoop=1;jettySize=auto;html=1;startArrow=ERmany;startFill=0;endArrow=classic;endFill=1;" edge="1" parent="1" source="gdrHPrjxvieABxBhzI8w-7" target="gdrHPrjxvieABxBhzI8w-3">
          <mxGeometry relative="1" as="geometry" />
        </mxCell>
        <mxCell id="gdrHPrjxvieABxBhzI8w-7" value="PET_SHELTERS" style="rounded=0;whiteSpace=wrap;html=1;" vertex="1" parent="1">
          <mxGeometry x="450" y="160" width="120" height="60" as="geometry" />
        </mxCell>
      </root>
    </mxGraphModel>
  </diagram>
</mxfile>
